<?xml version="1.0" encoding="utf-8"?>
<!-- Generator: Adobe Illustrator 28.1.0, SVG Export Plug-In . SVG Version: 6.00 Build 0)  -->
<svg version="1.1" id="Layer_1" xmlns="http://www.w3.org/2000/svg" xmlns:xlink="http://www.w3.org/1999/xlink" x="0px" y="0px"
	 viewBox="0 0 60 60" style="enable-background:new 0 0 60 60;" xml:space="preserve">
<path d="M41.69,28.88L31.32,18.51c-6.13-6.13-16.6-3.33-18.83,5.05L7.19,43.24c-1.58,5.92,3.84,11.34,9.76,9.76l1.24-0.34l2.62-2.62
	l-2.9-2.9l-2.89,2.89l-2.89-2.89l2.89-2.89l-2.89-2.89l2.9-2.9l2.89,2.89l-2.9,2.9l2.89,2.89l2.9-2.9l2.9,2.9l-2.9,2.9l1.52,1.52
	l14.31-3.84C45.01,45.48,47.81,35.01,41.69,28.88z"/>
<path d="M38.27,21.91L38.27,21.91c0-6.24,5.06-11.29,11.29-11.29h0v0C49.56,16.86,44.5,21.91,38.27,21.91L38.27,21.91z"/>
<path d="M40.37,24.66L40.37,24.66c5.38-3.15,12.3-1.34,15.45,4.04l0,0l0,0C50.44,31.85,43.52,30.04,40.37,24.66L40.37,24.66z"/>
<path d="M35.48,19.77L35.48,19.77c3.15-5.38,1.34-12.3-4.04-15.45l0,0l0,0C28.29,9.7,30.1,16.62,35.48,19.77L35.48,19.77z"/>
</svg>
